<svg width="1196" height="395" viewBox="0 0 1196 395" fill="none" xmlns="http://www.w3.org/2000/svg">
<path d="M311.839 125.949C301.815 89.4497 279.063 59.4684 249.442 39.8768C219.823 20.2853 183.328 11.0828 145.815 16.141C108.303 21.1977 75.5508 39.7379 52.1775 66.4748C28.8042 93.2109 14.8081 128.146 14.8081 166C14.8081 203.855 28.8042 238.791 52.1775 265.526C75.5508 292.264 108.303 310.803 145.815 315.861C183.328 320.918 219.823 311.717 249.442 292.125C279.063 272.534 301.815 242.552 311.839 206.053L312.934 206.351C302.834 243.128 279.913 273.336 250.07 293.073C220.227 312.811 183.459 322.082 145.664 316.986C107.872 311.891 74.8709 293.211 51.3214 266.274C27.7719 239.334 13.6684 204.134 13.6684 166C13.6684 127.866 27.7719 92.6663 51.3214 65.7262C74.8709 38.7891 107.872 20.1091 145.664 15.0159C183.459 9.91824 220.227 19.1895 250.07 38.9279C279.913 58.6664 302.834 88.8736 312.934 125.649L311.839 125.949Z" fill="white"/>
<path fill-rule="evenodd" clip-rule="evenodd" d="M209.01 166L173.812 145.678L173.798 145.7L138.706 125.441V206.556L173.798 186.296C174.059 186.144 174.322 186.003 174.589 185.87L209.01 165.997V166ZM188.028 121.133L244.301 153.623C246.468 154.83 248.348 156.625 249.674 158.934C253.576 165.727 251.235 174.395 244.444 178.299L188.774 210.438C188.536 210.596 188.291 210.75 188.043 210.894L132.433 242.998C130.16 244.537 127.416 245.437 124.461 245.437C116.594 245.437 110.218 239.059 110.218 231.192V100.811H110.249C110.247 98.3879 110.864 95.9345 112.164 93.688C116.097 86.8972 124.792 84.5805 131.583 88.5135L188.043 121.108L188.028 121.13V121.133Z" fill="white"/>
<path fill-rule="evenodd" clip-rule="evenodd" d="M326.075 122.07C328.133 129.629 323.674 137.428 316.116 139.488C308.556 141.546 300.758 137.085 298.698 129.528C289.588 96.3612 268.884 69.0966 241.912 51.2559C214.959 33.4299 181.759 25.0578 147.635 29.6584C113.503 34.2611 83.7014 51.1272 62.4372 75.4516C41.2052 99.7409 28.4892 131.524 28.4892 166C28.4892 200.477 41.2052 232.261 62.4372 256.548C83.7014 280.873 113.503 297.741 147.635 302.344C181.759 306.945 214.959 298.57 241.912 280.744C268.884 262.906 289.588 235.639 298.698 202.475C300.758 194.915 308.556 190.455 316.116 192.515C323.674 194.573 328.133 202.371 326.075 209.931C315.059 250.038 290.094 282.96 257.603 304.449C225.093 325.951 185.034 336.051 143.851 330.498C102.681 324.946 66.7293 304.596 41.07 275.245C15.3822 245.862 0 207.51 0 166C0 124.49 15.3822 86.1404 41.07 56.7556C66.7293 27.406 102.681 7.05413 143.851 1.5025C185.034 -4.05132 225.093 6.04894 257.603 27.5515C290.094 49.043 315.059 81.9631 326.075 122.07" fill="white"/>
<path d="M441.29 96.8833C447.579 96.8833 453.693 97.7328 459.592 99.393C465.494 101.053 471.006 103.351 476.129 106.318C481.254 109.286 485.917 112.892 490.123 117.096C494.327 121.301 497.932 125.966 500.934 131.089C503.939 136.211 506.271 141.723 507.93 147.59C509.592 153.457 510.405 159.568 510.405 165.93C510.405 175.506 508.601 184.445 504.963 192.785C501.324 201.124 496.377 208.436 490.123 214.691C483.867 220.947 476.519 225.893 468.11 229.497C459.698 233.101 450.758 234.904 441.29 234.904C431.749 234.904 422.809 233.101 414.435 229.497C406.059 225.893 398.781 220.947 392.598 214.691C386.414 208.436 381.537 201.124 377.969 192.785C374.399 184.445 372.598 175.506 372.598 165.93C372.598 159.568 373.41 153.457 375.035 147.59C376.661 141.723 378.958 136.211 381.925 131.089C384.894 125.966 388.463 121.301 392.633 117.096C396.802 112.892 401.432 109.286 406.519 106.318C411.606 103.351 417.083 101.053 422.95 99.393C428.815 97.7328 434.928 96.8833 441.29 96.8833V96.8833ZM441.395 129.957C436.377 129.957 431.678 130.912 427.296 132.784C422.915 134.657 419.098 137.202 415.849 140.453C412.597 143.738 410.052 147.555 408.217 151.935C406.378 156.319 405.46 160.981 405.46 165.93C405.46 171.052 406.378 175.788 408.217 180.239C410.052 184.657 412.597 188.472 415.849 191.688C419.098 194.905 422.915 197.447 427.296 199.285C431.678 201.124 436.377 202.041 441.395 202.041C446.413 202.041 451.113 201.124 455.493 199.285C459.876 197.447 463.691 194.905 466.907 191.688C470.121 188.472 472.666 184.657 474.539 180.239C476.413 175.788 477.331 171.052 477.331 165.93C477.331 160.981 476.413 156.319 474.539 151.935C472.666 147.555 470.121 143.738 466.907 140.453C463.691 137.202 459.876 134.657 455.493 132.784C451.113 130.912 446.413 129.957 441.395 129.957ZM561.499 162.183V217.519C561.499 219.78 561.074 221.9 560.226 223.879C559.379 225.858 558.212 227.554 556.728 229.002C555.21 230.451 553.477 231.582 551.462 232.394C549.413 233.207 547.293 233.631 545.033 233.631C542.736 233.631 540.614 233.207 538.637 232.394C536.658 231.582 534.926 230.451 533.407 229.002C531.923 227.554 530.757 225.858 529.909 223.879C529.061 221.9 528.637 219.78 528.637 217.519V114.481C528.637 112.22 529.061 110.101 529.909 108.122C530.757 106.142 531.923 104.445 533.407 102.996C534.891 101.548 536.623 100.416 538.6 99.6043C540.579 98.7921 542.736 98.3673 544.997 98.3673H545.209C546.126 98.3673 547.117 98.5099 548.176 98.7921C550.439 99.2168 552.524 100.064 554.43 101.372C556.338 102.68 557.895 104.304 559.094 106.213L606.233 170.134V114.057C606.233 111.795 606.691 109.676 607.576 107.696C608.459 105.717 609.661 103.987 611.179 102.539C612.698 101.088 614.466 99.9588 616.48 99.1466C618.53 98.3322 620.65 97.9448 622.946 97.9448C625.207 97.9448 627.292 98.3322 629.271 99.1466C631.215 99.9588 632.911 101.088 634.36 102.539C635.808 103.987 636.973 105.717 637.823 107.696C638.671 109.676 639.093 111.795 639.093 114.057V217.412C639.093 221.088 638.035 224.302 635.914 227.058C633.794 229.814 631.038 231.723 627.716 232.783C627.08 233.031 626.373 233.242 625.631 233.384C624.889 233.561 624.148 233.631 623.371 233.631H622.734H622.416C620.119 233.631 618.034 233.207 616.055 232.359C614.112 231.511 612.417 230.345 610.968 228.896C609.52 227.448 608.353 225.752 607.506 223.808C606.655 221.865 606.233 219.78 606.233 217.519V170.134L633.794 207.483C635.137 209.533 635.985 211.829 636.337 214.409C636.692 216.989 636.621 219.497 636.091 221.935C635.56 224.374 634.572 226.565 633.158 228.544C631.745 230.521 629.907 231.936 627.646 232.783C626.939 233.031 626.232 233.242 625.526 233.384C624.819 233.561 624.077 233.631 623.3 233.631H622.664H622.345C621.286 233.561 620.154 233.384 618.953 233.101C617.751 232.819 616.586 232.394 615.419 231.864C614.253 231.335 613.123 230.699 612.062 229.957C611.004 229.215 610.154 228.366 609.52 227.377L561.499 162.183Z" fill="white"/>
<path d="M776.438 117.555C769.653 110.772 762.056 105.612 753.611 102.114C745.165 98.6159 736.474 96.8833 727.569 96.8833C720.855 96.8833 714.53 97.7686 708.558 99.499C702.588 101.231 697.04 103.633 691.915 106.744C686.793 109.851 682.163 113.563 678.064 117.873C673.966 122.219 670.503 126.919 667.641 132.007C664.779 137.096 662.551 142.538 660.997 148.332C659.443 154.129 658.666 160.028 658.666 166.035C658.666 172.431 659.478 178.544 661.103 184.408C662.729 190.275 665.026 195.787 667.993 200.91C670.963 206.035 674.531 210.7 678.701 214.904C682.87 219.109 687.5 222.712 692.587 225.68C697.675 228.649 703.152 230.946 709.018 232.607C714.883 234.268 720.961 235.115 727.25 235.115C736.225 235.115 744.918 233.455 753.328 230.133C761.739 226.847 769.406 221.724 776.332 214.763C777.532 213.561 778.168 212.007 778.203 210.098C778.24 208.19 777.569 206.601 776.226 205.328C774.954 204.126 773.398 203.525 771.562 203.56C769.724 203.597 768.134 204.267 766.791 205.539C761.138 211.192 754.954 215.292 748.24 217.836C741.526 220.381 734.53 221.618 727.25 221.546C719.336 221.546 712.021 220.062 705.272 217.059C698.524 214.057 692.692 209.993 687.781 204.903C682.87 199.851 679.017 193.949 676.226 187.237C673.435 180.523 672.022 173.456 672.022 166.035C672.022 158.368 673.47 151.123 676.367 144.339C679.267 137.554 683.222 131.655 688.241 126.672C693.258 121.654 699.16 117.697 705.908 114.799C712.657 111.901 719.831 110.453 727.464 110.453C734.741 110.453 741.775 111.831 748.557 114.587C755.342 117.343 761.526 121.477 767.108 126.99C768.31 128.262 769.864 128.863 771.738 128.828C773.611 128.791 775.201 128.156 776.544 126.884C777.816 125.541 778.452 123.987 778.452 122.22C778.452 120.454 777.781 118.898 776.438 117.555V117.555ZM810.04 220.275L861.984 220.381C863.821 220.381 865.376 221.017 866.648 222.29C867.92 223.56 868.555 225.116 868.555 226.953C868.555 228.861 867.92 230.451 866.648 231.758C865.376 233.066 863.821 233.702 861.984 233.632H803.891H803.362C801.525 233.632 799.97 232.995 798.663 231.723C797.355 230.451 796.684 228.896 796.684 227.058V104.624C796.684 102.715 797.355 101.126 798.663 99.8529C799.97 98.5808 801.525 97.9448 803.362 97.9448C805.199 97.9448 806.79 98.5808 808.098 99.8529C809.403 101.126 810.04 102.715 810.04 104.624V220.275ZM964.491 191.228H903.537L887.319 229.603C886.542 231.37 885.305 232.57 883.607 233.242C881.913 233.913 880.145 233.878 878.309 233.101C876.541 232.324 875.412 231.087 874.882 229.391C874.351 227.694 874.457 225.999 875.234 224.302L928.131 101.973C929.333 99.287 931.382 97.9448 934.279 97.9448C935.622 97.9448 936.824 98.2972 937.883 99.0034C938.944 99.7103 939.756 100.701 940.322 101.973L992.9 224.302C993.677 226.069 993.82 227.765 993.29 229.426C992.759 231.087 991.627 232.324 989.932 233.101C988.235 233.878 986.505 233.913 984.737 233.242C982.972 232.57 981.699 231.405 980.922 229.709L964.491 191.228ZM909.157 177.873H958.873L933.962 119.251L909.157 177.873ZM1045.34 168.827C1049.22 170.099 1053.07 171.407 1056.89 172.785C1060.71 174.163 1064.17 175.823 1067.21 177.767C1070.25 179.71 1072.69 182.077 1074.53 184.798C1076.36 187.519 1077.28 190.876 1077.28 194.905C1077.28 199.285 1076.36 203.173 1074.53 206.53C1072.69 209.887 1070.28 212.714 1067.32 214.974C1064.35 217.235 1060.99 218.933 1057.28 220.062C1053.57 221.193 1049.83 221.759 1046.08 221.759C1042.48 221.759 1038.94 221.334 1035.55 220.487C1032.16 219.639 1029.01 218.402 1026.11 216.813C1023.22 215.221 1020.6 213.313 1018.31 211.051C1016.01 208.791 1014.17 206.246 1012.83 203.419C1011.27 201.44 1009.79 200.168 1008.34 199.64C1006.89 199.109 1005.34 199.32 1003.71 200.238C1002.3 201.018 1001.24 202.147 1000.5 203.666C999.755 205.187 999.896 207.093 1000.96 209.357C1002.51 212.96 1004.77 216.317 1007.71 219.461C1010.64 222.606 1014.07 225.327 1017.99 227.624C1021.91 229.922 1026.22 231.758 1030.88 233.101C1035.55 234.444 1040.39 235.115 1045.41 235.115C1051.45 235.115 1057.17 234.126 1062.69 232.183C1068.16 230.239 1072.97 227.483 1077.1 223.914C1081.24 220.346 1084.52 216.069 1086.96 211.087C1089.4 206.105 1090.64 200.523 1090.64 194.374C1090.64 188.65 1089.47 183.739 1087.14 179.64C1084.81 175.541 1081.7 171.971 1077.84 169.003C1073.99 166.035 1069.58 163.526 1064.56 161.476C1059.58 159.427 1054.49 157.591 1049.22 155.964C1045.83 155.117 1042.26 154.164 1038.52 153.067C1034.77 151.971 1031.31 150.522 1028.16 148.757C1025.02 146.989 1022.4 144.799 1020.36 142.219C1018.31 139.639 1017.28 136.425 1017.28 132.537C1017.28 128.828 1018.17 125.612 1019.9 122.82C1021.63 120.029 1023.85 117.697 1026.57 115.859C1029.3 114.021 1032.3 112.643 1035.62 111.69C1038.94 110.735 1042.26 110.241 1045.59 110.241C1051.52 110.241 1056.82 111.23 1061.49 113.244C1066.15 115.258 1070.53 118.792 1074.63 123.809C1076.11 124.94 1077.67 125.4 1079.26 125.224C1080.85 125.046 1082.12 124.515 1083.11 123.598C1083.89 122.82 1084.49 121.759 1084.91 120.454C1085.34 119.146 1085.16 117.873 1084.38 116.601C1082.54 113.35 1080.25 110.488 1077.49 108.051C1074.74 105.612 1071.66 103.562 1068.27 101.903C1064.88 100.24 1061.24 99.0034 1057.35 98.1561C1053.46 97.3081 1049.47 96.8833 1045.37 96.8833C1040.28 96.8833 1035.27 97.7328 1030.32 99.393C1025.37 101.053 1020.96 103.422 1017.03 106.495C1013.11 109.57 1009.93 113.315 1007.53 117.733C1005.13 122.149 1003.92 127.131 1003.92 132.643C1003.92 138.085 1005.13 142.82 1007.53 146.813C1009.93 150.807 1013.08 154.234 1017 157.096C1020.89 159.957 1025.3 162.324 1030.25 164.197C1035.2 166.071 1040.25 167.625 1045.34 168.827V168.827ZM1150.07 168.827C1153.96 170.099 1157.81 171.407 1161.63 172.785C1165.44 174.163 1168.91 175.823 1171.94 177.767C1174.98 179.71 1177.42 182.077 1179.26 184.798C1181.09 187.519 1182.01 190.876 1182.01 194.905C1182.01 199.285 1181.09 203.173 1179.26 206.53C1177.42 209.887 1175.02 212.714 1172.05 214.974C1169.08 217.235 1165.72 218.933 1162.01 220.062C1158.3 221.193 1154.56 221.759 1150.81 221.759C1147.21 221.759 1143.67 221.334 1140.28 220.487C1136.89 219.639 1133.74 218.402 1130.85 216.813C1127.95 215.221 1125.34 213.313 1123.04 211.051C1120.74 208.791 1118.9 206.246 1117.56 203.419C1116.01 201.44 1114.52 200.168 1113.07 199.64C1111.62 199.109 1110.07 199.32 1108.45 200.238C1107.03 201.018 1105.97 202.147 1105.23 203.666C1104.49 205.187 1104.63 207.093 1105.69 209.357C1107.24 212.96 1109.5 216.317 1112.44 219.461C1115.37 222.606 1118.8 225.327 1122.72 227.624C1126.64 229.922 1130.95 231.758 1135.62 233.101C1140.28 234.444 1145.12 235.115 1150.14 235.115C1156.18 235.115 1161.91 234.126 1167.42 232.183C1172.9 230.239 1177.7 227.483 1181.84 223.914C1185.97 220.346 1189.26 216.069 1191.7 211.087C1194.13 206.105 1195.37 200.523 1195.37 194.374C1195.37 188.65 1194.2 183.739 1191.87 179.64C1189.54 175.541 1186.43 171.971 1182.58 169.003C1178.73 166.035 1174.31 163.526 1169.29 161.476C1164.31 159.427 1159.22 157.591 1153.96 155.964C1150.57 155.117 1147 154.164 1143.25 153.067C1139.51 151.971 1136.04 150.522 1132.9 148.757C1129.75 146.989 1127.14 144.799 1125.09 142.219C1123.04 139.639 1122.01 136.425 1122.01 132.537C1122.01 128.828 1122.9 125.612 1124.63 122.82C1126.36 120.029 1128.59 117.697 1131.31 115.859C1134.03 114.021 1137.03 112.643 1140.35 111.69C1143.67 110.735 1147 110.241 1150.32 110.241C1156.25 110.241 1161.55 111.23 1166.22 113.244C1170.88 115.258 1175.26 118.792 1179.36 123.809C1180.85 124.94 1182.4 125.4 1183.99 125.224C1185.58 125.046 1186.85 124.515 1187.84 123.598C1188.62 122.82 1189.22 121.759 1189.65 120.454C1190.07 119.146 1189.89 117.873 1189.12 116.601C1187.28 113.35 1184.98 110.488 1182.23 108.051C1179.47 105.612 1176.39 103.562 1173 101.903C1169.61 100.24 1165.97 99.0034 1162.09 98.1561C1158.2 97.3081 1154.2 96.8833 1150.11 96.8833C1145.02 96.8833 1140 97.7328 1135.05 99.393C1130.11 101.053 1125.69 103.422 1121.77 106.495C1117.84 109.57 1114.67 113.315 1112.26 117.733C1109.86 122.149 1108.66 127.131 1108.66 132.643C1108.66 138.085 1109.86 142.82 1112.26 146.813C1114.67 150.807 1117.81 154.234 1121.73 157.096C1125.62 159.957 1130.03 162.324 1134.98 164.197C1139.93 166.071 1144.98 167.625 1150.07 168.827" fill="white"/>
<path d="M828.742 353.115L825.952 372.105C825.802 373.065 825.487 373.935 825.007 374.715C824.557 375.495 823.972 376.155 823.252 376.695C822.562 377.205 821.767 377.58 820.867 377.82C819.967 378.06 819.037 378.105 818.077 377.955C817.117 377.805 816.247 377.505 815.467 377.055C814.717 376.575 814.072 375.99 813.532 375.3C812.992 374.58 812.602 373.785 812.362 372.915C812.122 372.015 812.062 371.085 812.182 370.125L818.617 326.7C818.737 325.62 819.112 324.66 819.742 323.82C820.522 322.53 821.662 321.585 823.162 320.985C824.032 320.625 824.917 320.46 825.817 320.49C826.717 320.49 827.572 320.67 828.382 321.03C829.192 321.36 829.927 321.84 830.587 322.47C831.247 323.1 831.772 323.85 832.162 324.72L843.727 352.935L855.157 324.72C855.517 323.85 856.012 323.1 856.642 322.47C857.302 321.84 858.037 321.36 858.847 321.03C859.657 320.7 860.512 320.52 861.412 320.49C862.312 320.46 863.197 320.625 864.067 320.985C864.727 321.255 865.327 321.615 865.867 322.065C866.647 322.575 867.277 323.235 867.757 324.045C868.267 324.855 868.582 325.755 868.702 326.745L874.552 370.35C874.672 371.31 874.597 372.24 874.327 373.14C874.057 374.01 873.637 374.79 873.067 375.48C872.527 376.17 871.852 376.74 871.042 377.19C870.262 377.64 869.392 377.91 868.432 378C867.472 378.12 866.557 378.06 865.687 377.82C864.817 377.58 864.022 377.205 863.302 376.695C862.612 376.155 862.027 375.495 861.547 374.715C861.097 373.905 860.812 373.02 860.692 372.06L858.217 353.61L850.027 373.68C849.697 374.46 849.247 375.15 848.677 375.75C848.137 376.32 847.522 376.785 846.832 377.145C846.142 377.505 845.407 377.745 844.627 377.865C843.847 377.985 843.052 377.97 842.242 377.82C841.162 377.61 840.172 377.16 839.272 376.47C838.372 375.75 837.667 374.82 837.157 373.68L828.742 353.115ZM891.315 357.075C891.315 358.125 891.51 359.1 891.9 360C892.32 360.9 892.875 361.695 893.565 362.385C894.255 363.045 895.05 363.57 895.95 363.96C896.85 364.35 897.81 364.545 898.83 364.545C899.85 364.545 900.81 364.35 901.71 363.96C902.64 363.57 903.45 363.045 904.14 362.385C904.83 361.695 905.37 360.9 905.76 360C906.15 359.1 906.345 358.125 906.345 357.075C906.345 356.025 906.15 355.05 905.76 354.15C905.37 353.25 904.83 352.47 904.14 351.81C903.45 351.12 902.64 350.58 901.71 350.19C900.81 349.8 899.85 349.605 898.83 349.605C897.81 349.605 896.85 349.8 895.95 350.19C895.05 350.58 894.255 351.12 893.565 351.81C892.875 352.47 892.32 353.25 891.9 354.15C891.51 355.05 891.315 356.025 891.315 357.075ZM877.365 357.075C877.365 354.105 877.935 351.33 879.075 348.75C880.215 346.14 881.76 343.86 883.71 341.91C885.66 339.96 887.925 338.43 890.505 337.32C893.115 336.18 895.89 335.61 898.83 335.61C901.8 335.61 904.575 336.18 907.155 337.32C909.765 338.43 912.03 339.96 913.95 341.91C915.9 343.86 917.43 346.14 918.54 348.75C919.68 351.33 920.25 354.105 920.25 357.075C920.25 360.015 919.68 362.79 918.54 365.4C917.43 368.01 915.9 370.29 913.95 372.24C912.03 374.16 909.765 375.69 907.155 376.83C904.575 377.94 901.8 378.495 898.83 378.495C895.89 378.495 893.115 377.94 890.505 376.83C887.925 375.69 885.66 374.16 883.71 372.24C881.76 370.29 880.215 368.01 879.075 365.4C877.935 362.79 877.365 360.015 877.365 357.075ZM933.798 335.565C935.178 335.565 936.408 335.925 937.488 336.645C938.568 337.365 939.378 338.295 939.918 339.435C941.508 338.265 943.158 337.335 944.868 336.645C946.608 335.955 948.333 335.61 950.043 335.61C952.713 335.61 955.068 336.18 957.108 337.32C959.178 338.46 960.903 340.005 962.283 341.955C963.693 343.875 964.758 346.095 965.478 348.615C966.228 351.135 966.603 353.79 966.603 356.58V356.715V356.895V371.34C966.603 372.3 966.408 373.2 966.018 374.04C965.658 374.85 965.163 375.555 964.533 376.155C963.903 376.755 963.168 377.235 962.328 377.595C961.488 377.925 960.603 378.09 959.673 378.09C958.713 378.09 957.813 377.925 956.973 377.595C956.133 377.235 955.398 376.755 954.768 376.155C954.138 375.555 953.643 374.85 953.283 374.04C952.923 373.2 952.743 372.3 952.743 371.34V356.85V356.58C952.713 355.71 952.593 354.84 952.383 353.97C952.203 353.1 951.903 352.335 951.483 351.675C951.063 350.985 950.523 350.43 949.863 350.01C949.233 349.59 948.453 349.38 947.523 349.38C946.563 349.38 945.663 349.545 944.823 349.875C943.983 350.205 943.248 350.67 942.618 351.27C941.988 351.87 941.493 352.59 941.133 353.43C940.773 354.27 940.593 355.185 940.593 356.175V371.115C940.593 372.075 940.413 372.975 940.053 373.815C939.693 374.625 939.198 375.345 938.568 375.975C937.968 376.605 937.248 377.1 936.408 377.46C935.568 377.82 934.668 378 933.708 378C932.748 378 931.833 377.82 930.963 377.46C930.123 377.1 929.388 376.605 928.758 375.975C928.128 375.345 927.618 374.625 927.228 373.815C926.868 372.975 926.688 372.075 926.688 371.115V342.45C926.688 341.52 926.868 340.635 927.228 339.795C927.618 338.955 928.128 338.22 928.758 337.59C929.418 336.96 930.168 336.465 931.008 336.105C931.878 335.745 932.808 335.565 933.798 335.565ZM986.588 357.075C986.588 358.125 986.783 359.1 987.173 360C987.593 360.9 988.148 361.695 988.838 362.385C989.528 363.045 990.323 363.57 991.223 363.96C992.123 364.35 993.083 364.545 994.103 364.545C995.123 364.545 996.083 364.35 996.983 363.96C997.913 363.57 998.723 363.045 999.413 362.385C1000.1 361.695 1000.64 360.9 1001.03 360C1001.42 359.1 1001.62 358.125 1001.62 357.075C1001.62 356.025 1001.42 355.05 1001.03 354.15C1000.64 353.25 1000.1 352.47 999.413 351.81C998.723 351.12 997.913 350.58 996.983 350.19C996.083 349.8 995.123 349.605 994.103 349.605C993.083 349.605 992.123 349.8 991.223 350.19C990.323 350.58 989.528 351.12 988.838 351.81C988.148 352.47 987.593 353.25 987.173 354.15C986.783 355.05 986.588 356.025 986.588 357.075ZM972.638 357.075C972.638 354.105 973.208 351.33 974.348 348.75C975.488 346.14 977.033 343.86 978.983 341.91C980.933 339.96 983.198 338.43 985.778 337.32C988.388 336.18 991.163 335.61 994.103 335.61C997.073 335.61 999.848 336.18 1002.43 337.32C1005.04 338.43 1007.3 339.96 1009.22 341.91C1011.17 343.86 1012.7 346.14 1013.81 348.75C1014.95 351.33 1015.52 354.105 1015.52 357.075C1015.52 360.015 1014.95 362.79 1013.81 365.4C1012.7 368.01 1011.17 370.29 1009.22 372.24C1007.3 374.16 1005.04 375.69 1002.43 376.83C999.848 377.94 997.073 378.495 994.103 378.495C991.163 378.495 988.388 377.94 985.778 376.83C983.198 375.69 980.933 374.16 978.983 372.24C977.033 370.29 975.488 368.01 974.348 365.4C973.208 362.79 972.638 360.015 972.638 357.075ZM1035.91 371.115C1035.91 372.075 1035.73 372.975 1035.37 373.815C1035.01 374.625 1034.52 375.345 1033.89 375.975C1033.29 376.605 1032.57 377.1 1031.73 377.46C1030.89 377.82 1029.99 378 1029.03 378C1028.07 378 1027.15 377.82 1026.28 377.46C1025.44 377.1 1024.71 376.605 1024.08 375.975C1023.45 375.345 1022.94 374.625 1022.55 373.815C1022.19 372.975 1022.01 372.075 1022.01 371.115V342.45C1022.01 341.52 1022.19 340.635 1022.55 339.795C1022.94 338.955 1023.45 338.22 1024.08 337.59C1024.74 336.96 1025.5 336.465 1026.37 336.105C1027.24 335.745 1028.16 335.565 1029.12 335.565C1030.2 335.565 1031.19 335.79 1032.09 336.24C1033.02 336.69 1033.78 337.305 1034.38 338.085C1035.85 337.335 1037.4 336.765 1039.02 336.375C1040.64 335.955 1042.32 335.715 1044.06 335.655C1044.15 335.655 1044.22 335.655 1044.28 335.655C1044.37 335.625 1044.46 335.61 1044.55 335.61H1044.69H1044.73C1046.95 335.67 1048.68 336.345 1049.91 337.635C1051.14 338.895 1051.75 340.515 1051.75 342.495C1051.75 343.485 1051.56 344.4 1051.17 345.24C1050.81 346.08 1050.3 346.815 1049.64 347.445C1048.98 348.045 1048.21 348.525 1047.34 348.885C1046.47 349.215 1045.54 349.38 1044.55 349.38H1044.33C1043.16 349.44 1042.06 349.71 1041.04 350.19C1040.02 350.67 1039.12 351.315 1038.34 352.125C1037.59 352.905 1036.99 353.82 1036.54 354.87C1036.12 355.92 1035.91 357.03 1035.91 358.2V371.115ZM1068.52 361.53C1069.51 362.79 1070.5 363.75 1071.49 364.41C1072.51 365.04 1073.77 365.355 1075.27 365.355C1075.99 365.355 1076.58 365.325 1077.03 365.265C1077.51 365.205 1077.91 365.115 1078.24 364.995C1078.57 364.875 1078.86 364.755 1079.1 364.635C1079.34 364.485 1079.58 364.335 1079.82 364.185C1080.96 363.345 1082.05 362.865 1083.1 362.745C1084.15 362.595 1085.14 362.7 1086.07 363.06C1086.73 363.3 1087.32 363.66 1087.83 364.14C1088.37 364.62 1088.82 365.16 1089.18 365.76C1089.54 366.39 1089.79 367.125 1089.94 367.965C1090.09 368.775 1090.12 369.615 1090.03 370.485C1089.94 371.325 1089.7 372.15 1089.31 372.96C1088.92 373.77 1088.37 374.46 1087.65 375.03C1087.11 375.45 1086.48 375.87 1085.76 376.29C1085.04 376.68 1084.18 377.04 1083.19 377.37C1082.2 377.7 1081.06 377.97 1079.77 378.18C1078.48 378.39 1076.98 378.495 1075.27 378.495C1072.3 378.495 1069.51 377.94 1066.9 376.83C1064.29 375.69 1062 374.16 1060.02 372.24C1058.07 370.29 1056.52 368.025 1055.38 365.445C1054.24 362.835 1053.67 360.045 1053.67 357.075C1053.67 354.105 1054.24 351.315 1055.38 348.705C1056.52 346.095 1058.07 343.83 1060.02 341.91C1062 339.96 1064.29 338.43 1066.9 337.32C1069.51 336.18 1072.3 335.61 1075.27 335.61C1078.18 335.61 1080.91 336.165 1083.46 337.275C1086.04 338.355 1088.28 339.855 1090.17 341.775C1092.09 343.695 1093.6 345.945 1094.71 348.525C1095.82 351.075 1096.41 353.82 1096.47 356.76C1096.47 357.63 1096.32 358.38 1096.02 359.01C1095.72 359.61 1095.28 360.105 1094.71 360.495C1094.17 360.855 1093.53 361.125 1092.78 361.305C1092.03 361.455 1091.2 361.53 1090.3 361.53H1068.52ZM1083.06 353.295C1082.25 351.825 1081.23 350.685 1080 349.875C1078.8 349.065 1077.31 348.66 1075.54 348.66C1073.83 348.66 1072.39 349.095 1071.22 349.965C1070.08 350.835 1069.12 351.945 1068.34 353.295H1083.06ZM1124.9 378.495C1123.55 378.495 1122.25 378.375 1120.99 378.135C1119.73 377.895 1118.51 377.565 1117.34 377.145V386.37C1117.34 387.33 1117.16 388.23 1116.8 389.07C1116.44 389.91 1115.95 390.63 1115.32 391.23C1114.69 391.86 1113.94 392.34 1113.07 392.67C1112.23 393.03 1111.33 393.21 1110.37 393.21C1109.41 393.21 1108.51 393.03 1107.67 392.67C1106.83 392.34 1106.09 391.86 1105.46 391.23C1104.83 390.63 1104.34 389.91 1103.98 389.07C1103.62 388.23 1103.44 387.33 1103.44 386.37V342.45C1103.44 341.49 1103.62 340.605 1103.98 339.795C1104.34 338.955 1104.83 338.235 1105.46 337.635C1106.09 337.005 1106.83 336.51 1107.67 336.15C1108.51 335.79 1109.41 335.61 1110.37 335.61C1111.39 335.61 1112.33 335.805 1113.2 336.195C1114.1 336.585 1114.87 337.125 1115.5 337.815C1116.94 337.125 1118.44 336.585 1120 336.195C1121.56 335.805 1123.19 335.61 1124.9 335.61C1127.87 335.61 1130.65 336.18 1133.23 337.32C1135.84 338.43 1138.1 339.96 1140.02 341.91C1141.97 343.86 1143.5 346.14 1144.61 348.75C1145.75 351.33 1146.32 354.105 1146.32 357.075C1146.32 360.015 1145.75 362.79 1144.61 365.4C1143.5 368.01 1141.97 370.29 1140.02 372.24C1138.1 374.16 1135.84 375.69 1133.23 376.83C1130.65 377.94 1127.87 378.495 1124.9 378.495ZM1117.39 357.075C1117.39 358.125 1117.58 359.1 1117.97 360C1118.39 360.9 1118.95 361.695 1119.64 362.385C1120.33 363.045 1121.12 363.57 1122.02 363.96C1122.92 364.35 1123.88 364.545 1124.9 364.545C1125.92 364.545 1126.88 364.35 1127.78 363.96C1128.71 363.57 1129.52 363.045 1130.21 362.385C1130.9 361.695 1131.44 360.9 1131.83 360C1132.22 359.1 1132.42 358.125 1132.42 357.075C1132.42 356.025 1132.22 355.05 1131.83 354.15C1131.44 353.25 1130.9 352.47 1130.21 351.81C1129.52 351.12 1128.71 350.58 1127.78 350.19C1126.88 349.8 1125.92 349.605 1124.9 349.605C1123.88 349.605 1122.92 349.8 1122.02 350.19C1121.12 350.58 1120.33 351.12 1119.64 351.81C1118.95 352.47 1118.39 353.25 1117.97 354.15C1117.58 355.05 1117.39 356.025 1117.39 357.075ZM1164.13 357.075C1164.13 358.125 1164.32 359.1 1164.71 360C1165.13 360.9 1165.69 361.695 1166.38 362.385C1167.07 363.045 1167.86 363.57 1168.76 363.96C1169.66 364.35 1170.62 364.545 1171.64 364.545C1172.66 364.545 1173.62 364.35 1174.52 363.96C1175.45 363.57 1176.26 363.045 1176.95 362.385C1177.64 361.695 1178.18 360.9 1178.57 360C1178.96 359.1 1179.16 358.125 1179.16 357.075C1179.16 356.025 1178.96 355.05 1178.57 354.15C1178.18 353.25 1177.64 352.47 1176.95 351.81C1176.26 351.12 1175.45 350.58 1174.52 350.19C1173.62 349.8 1172.66 349.605 1171.64 349.605C1170.62 349.605 1169.66 349.8 1168.76 350.19C1167.86 350.58 1167.07 351.12 1166.38 351.81C1165.69 352.47 1165.13 353.25 1164.71 354.15C1164.32 355.05 1164.13 356.025 1164.13 357.075ZM1150.18 357.075C1150.18 354.105 1150.75 351.33 1151.89 348.75C1153.03 346.14 1154.57 343.86 1156.52 341.91C1158.47 339.96 1160.74 338.43 1163.32 337.32C1165.93 336.18 1168.7 335.61 1171.64 335.61C1174.61 335.61 1177.39 336.18 1179.97 337.32C1182.58 338.43 1184.84 339.96 1186.76 341.91C1188.71 343.86 1190.24 346.14 1191.35 348.75C1192.49 351.33 1193.06 354.105 1193.06 357.075C1193.06 360.015 1192.49 362.79 1191.35 365.4C1190.24 368.01 1188.71 370.29 1186.76 372.24C1184.84 374.16 1182.58 375.69 1179.97 376.83C1177.39 377.94 1174.61 378.495 1171.64 378.495C1168.7 378.495 1165.93 377.94 1163.32 376.83C1160.74 375.69 1158.47 374.16 1156.52 372.24C1154.57 370.29 1153.03 368.01 1151.89 365.4C1150.75 362.79 1150.18 360.015 1150.18 357.075Z" fill="white"/>
</svg>
